<svg width="295" height="343" viewBox="0 0 295 343" fill="none" xmlns="http://www.w3.org/2000/svg">
<path d="M173.088 82.2289C171.659 81.0284 169.503 81.1204 168.19 82.4375L158.092 92.5633C156.752 93.9068 156.774 96.036 158.142 97.3535L181.705 120.045C184.48 122.718 188.98 122.718 191.755 120.045L198.653 113.401C201.564 110.599 201.401 106.009 198.299 103.404L173.088 82.2289Z" fill="#78896A"/>
<path d="M238.241 25.3286C242.791 25.172 246.517 28.7783 246.331 33.1593L247.042 71.5779H225.788L225.078 58.5743H223.532C220.947 58.5743 217.371 56.6667 217.154 54.1856L216.805 33.9384C216.43 29.653 219.853 25.9365 224.316 25.7832L238.241 25.3286Z" fill="#D08719"/>
<path fill-rule="evenodd" clip-rule="evenodd" d="M233.259 54.8852C227.439 53.7216 227.575 50.0611 227.786 44.4004C227.828 43.2551 227.874 42.0278 227.874 40.7229V31.8257H248.806C248.839 31.9829 248.83 32.2736 248.788 32.6728V40.7229C248.788 41.3978 248.793 42.0565 248.797 42.6973C248.85 49.8548 248.885 54.7813 242.036 55.0954C242.036 55.0954 236.124 55.7065 233.259 54.8852Z" fill="#69450E"/>
<path d="M147.972 74.6421L146.384 74.7433L146.21 74.9652C145.033 76.4611 144.239 78.2029 143.892 80.0497C143.73 80.91 143.968 81.7954 144.544 82.4718L146.79 85.1125C148.181 86.7485 150.765 86.7895 152.212 85.199L153.09 84.233L159.076 85.9383L147.972 74.6421Z" fill="#DC9831"/>
<path d="M164.021 77.3024L164.503 79.1109L167.08 81.7857L156.729 90.5167L155.641 90.0391C153.288 89.0052 151.478 87.0867 150.634 84.7317L145.079 78.5971C144.708 78.1872 144.624 77.6048 144.865 77.1131L146.89 72.9813C147.335 72.0735 148.172 71.3997 149.178 71.1383L149.834 70.968C150.349 70.8341 150.481 70.191 150.059 69.8784L143.484 65.0139C142.869 64.559 142.638 63.7691 142.916 63.0721C143.309 62.084 144.539 61.6845 145.474 62.2415L156.67 68.9145L159.95 71.3512C161.958 72.8424 163.391 74.9372 164.021 77.3024Z" fill="#DB952B"/>
<path d="M154.175 89.4285L164.853 79.1451C165.131 78.8778 165.581 78.8778 165.859 79.1451L168.868 82.0435C169.146 82.3108 169.146 82.7442 168.868 83.0115L158.19 93.2948C157.913 93.5622 157.462 93.5622 157.185 93.2949L154.175 90.3965C153.898 90.1292 153.898 89.6958 154.175 89.4285Z" fill="#78896A"/>
<path d="M228.807 58.8589H224.999L225.355 63.3075L229.068 59.4332C229.278 59.214 229.117 58.8589 228.807 58.8589Z" fill="#DBB376"/>
<path d="M246.17 60.9111C247.388 60.9111 248.376 61.8304 248.376 62.9643V66.3862C248.376 67.1422 249.013 67.7551 249.798 67.7551H261.464C266.609 67.7551 270.763 71.8025 270.702 76.7571L269.733 156.043C269.733 158.311 267.757 162.887 265.32 162.887H202.126C199.662 162.887 198.312 158.274 198.349 155.982L201.512 113.75L199.702 75.625C199.772 71.2596 203.595 67.7551 208.287 67.7551H220.531C221.313 67.7551 221.948 67.1464 221.952 66.393L221.97 62.9643C221.97 61.8304 222.958 60.9111 224.177 60.9111H246.17Z" fill="#78896A"/>
<path d="M201.901 110.874C208.179 103.916 216.115 101.977 218.958 79.0493L201.191 96.844L201.901 110.874Z" fill="#584323"/>
<path d="M274.316 74.7624C271.557 69.3156 264.752 67.0321 259.076 69.6482C253.194 72.3589 250.845 79.2452 253.912 84.787L278.91 129.956L281.439 128.593C290.318 123.806 293.773 113.175 289.312 104.367L274.316 74.7624Z" fill="#78896A"/>
<path d="M249.296 140.936C248.296 142.518 248.785 144.579 250.398 145.587L261.866 152.75C263.483 153.76 265.641 153.344 266.731 151.813L286.805 123.607C291.243 117.372 289.591 108.852 283.116 104.578L275.468 99.5298L249.296 140.936Z" fill="#78896A"/>
<path d="M269.379 156.044V156.04L270.347 76.7539C270.405 71.9901 266.411 68.0984 261.464 68.0984H249.798C248.817 68.0984 248.022 67.3322 248.022 66.3872V62.9653C248.022 62.0314 247.204 61.2544 246.17 61.2544H224.177C223.143 61.2544 222.326 62.0314 222.326 62.9653V62.9671L222.308 66.3959C222.303 67.3376 221.509 68.0984 220.531 68.0984H208.287C203.782 68.0984 200.13 71.4583 200.057 75.6212L201.868 115.105L201.869 115.125L201.867 115.146L198.704 155.998C198.689 157.093 199.006 158.766 199.627 160.16C199.937 160.858 200.315 161.466 200.746 161.893C201.176 162.319 201.636 162.546 202.126 162.546H265.32C265.809 162.546 266.309 162.316 266.799 161.885C267.288 161.455 267.741 160.847 268.128 160.155C268.907 158.762 269.379 157.107 269.379 156.044Z" stroke="black" stroke-width="2.286"/>
<path d="M179.118 105.489C175.888 110.979 177.78 117.949 183.387 121.214C189.414 124.724 197.268 122.557 200.452 116.507L217.998 83.1656C220.804 77.8322 218.573 71.3175 213.022 68.6382C207.687 66.0635 201.193 67.9666 198.251 72.9668L179.118 105.489Z" fill="#78896A"/>
<path d="M182.714 99.5808L198.266 72.9922C201.197 67.981 207.696 66.0683 213.035 68.6449C218.579 71.3205 220.808 77.8265 218.006 83.1539L200.229 116.958C197.42 122.3 190.658 124.451 185.098 121.774C184.223 121.353 183.409 120.824 182.675 120.201L177.739 116.007" stroke="black" stroke-width="2.286"/>
<path d="M193.098 307.414H212.286L210.865 327.26H191.677L193.098 307.414Z" fill="#F6E4C8"/>
<path d="M211.575 317.678H192.387L193.098 327.259H210.864L211.575 317.678Z" fill="#FDD69B"/>
<path d="M198.139 323.382C198.754 324.504 199.964 325.208 201.281 325.208H203.799C204.955 325.208 205.994 324.528 206.423 323.495C206.852 322.462 207.892 321.786 209.047 321.786H213.708V343H202.87L197.451 340.263H192.032L184.57 340.949L181.194 343H170.357L169.826 339.425C169.318 335.999 171.548 332.745 175.02 331.846L184.5 329.397C187.318 328.67 189.388 326.358 189.72 323.564L190.039 320.866C190.163 319.83 191.074 319.046 192.158 319.046H194.478C195.269 319.046 195.994 319.468 196.363 320.142L198.139 323.382Z" fill="#7A551C"/>
<path d="M213.708 337.526C212.797 338.404 211.208 338.895 209.921 338.895H169.832V343H183.349C183.655 342.179 184.464 341.632 185.37 341.632H185.486C186.247 341.632 186.96 341.994 187.391 342.599L187.679 343H193.454C194.125 342.141 195.178 341.632 196.296 341.632H197.606C198.806 341.632 199.948 342.132 200.738 343H213.708V337.526Z" fill="#2E1D03"/>
<path d="M176.73 331.406C177.035 331.745 177.284 332.134 177.463 332.565C178.107 334.113 179.666 335.131 181.4 335.131H182.438C184.597 335.131 186.347 336.817 186.347 338.895H169.769C169.552 335.667 171.727 332.7 175.02 331.846L176.73 331.406ZM213.708 323.837H209.813C208.946 323.837 208.167 324.346 207.845 325.121C207.308 326.412 206.009 327.259 204.564 327.259H199.611C198.238 327.259 196.988 326.499 196.4 325.304L194.742 321.932C194.389 321.217 193.639 320.759 192.815 320.759H190.056C190.227 319.777 191.112 319.046 192.158 319.046H194.478C195.269 319.046 195.994 319.468 196.363 320.142L198.139 323.382C198.754 324.504 199.964 325.208 201.281 325.208H203.799C204.955 325.208 205.994 324.528 206.423 323.495C206.853 322.462 207.892 321.786 209.047 321.786H213.708V323.837Z" fill="#69450E"/>
<path d="M189.891 322.127H192.388C192.977 322.127 193.454 322.585 193.454 323.154C193.454 323.72 192.977 324.181 192.388 324.181H189.617C189.661 323.977 189.695 323.774 189.72 323.564L189.728 323.495H192.388C192.584 323.495 192.743 323.343 192.743 323.154C192.743 322.965 192.584 322.813 192.388 322.813H189.809L189.891 322.127ZM189.162 325.549H191.678C192.266 325.549 192.743 326.008 192.743 326.576C192.743 327.142 192.266 327.603 191.678 327.603H187.71C187.931 327.388 188.137 327.157 188.326 326.918H191.678C191.874 326.918 192.033 326.765 192.033 326.576C192.033 326.388 191.874 326.232 191.678 326.232H188.8C188.933 326.014 189.055 325.783 189.162 325.549Z" fill="#F6E4C8"/>
<path fill-rule="evenodd" clip-rule="evenodd" d="M195.23 320.073C195.23 324.325 195.067 327.636 192.782 330.017C190.504 332.388 186.2 333.76 178.206 334.445L178.143 333.763C186.139 333.08 190.184 331.714 192.26 329.553C194.327 327.397 194.52 324.379 194.52 320.073H195.23ZM213.708 333.077C209.661 333.077 206.956 335.682 206.956 338.895H206.245C206.245 335.305 209.268 332.394 213.708 332.394V333.077Z" fill="#69450E"/>
<path d="M271.983 307.414H252.795L254.216 327.26H273.404L271.983 307.414Z" fill="#F6E4C8"/>
<path d="M272.693 317.678H253.505V327.259H273.404L272.693 317.678Z" fill="#FDD69B"/>
<path d="M259.256 323.382C259.872 324.504 261.081 325.208 262.399 325.208H264.917C266.072 325.208 267.112 324.528 267.541 323.495C267.97 322.462 269.009 321.786 270.165 321.786H274.825V343H263.988L258.569 340.263H253.15L245.687 340.949L242.312 343H231.474L230.944 339.425C230.435 335.999 232.665 332.745 236.138 331.846L245.618 329.397C248.436 328.67 250.505 326.358 250.837 323.564L251.157 320.866C251.28 319.83 252.191 319.046 253.275 319.046H255.595C256.386 319.046 257.112 319.468 257.481 320.142L259.256 323.382Z" fill="#7A551C"/>
<path d="M274.825 337.526C273.915 338.404 272.325 338.895 271.038 338.895H230.949V343H244.466C244.772 342.179 245.581 341.632 246.487 341.632H246.603C247.365 341.632 248.078 341.994 248.509 342.599L248.797 343H254.571C255.242 342.141 256.295 341.632 257.414 341.632H258.723C259.923 341.632 261.065 342.132 261.855 343H274.825V337.526Z" fill="#2E1D03"/>
<path d="M237.848 331.406C238.152 331.745 238.402 332.134 238.581 332.565C239.225 334.113 240.784 335.131 242.517 335.131H243.556C245.714 335.131 247.464 336.817 247.464 338.895H230.887C230.669 335.667 232.845 332.7 236.138 331.846L237.848 331.406ZM274.825 323.837H270.93C270.063 323.837 269.284 324.346 268.962 325.121C268.426 326.412 267.127 327.259 265.682 327.259H260.728C259.355 327.259 258.105 326.499 257.517 325.304L255.859 321.932C255.507 321.217 254.756 320.759 253.932 320.759H251.173C251.345 319.777 252.23 319.046 253.275 319.046H255.595C256.386 319.046 257.112 319.468 257.481 320.142L259.256 323.382C259.872 324.504 261.081 325.208 262.399 325.208H264.917C266.072 325.208 267.112 324.528 267.541 323.495C267.97 322.462 269.009 321.786 270.165 321.786H274.825V323.837Z" fill="#69450E"/>
<path d="M251.008 322.127H253.506C254.095 322.127 254.572 322.585 254.572 323.154C254.572 323.72 254.095 324.181 253.506 324.181H250.735C250.779 323.977 250.813 323.774 250.838 323.564L250.846 323.495H253.506C253.702 323.495 253.861 323.343 253.861 323.154C253.861 322.965 253.702 322.813 253.506 322.813H250.927L251.008 322.127ZM250.28 325.549H252.795C253.384 325.549 253.861 326.008 253.861 326.576C253.861 327.142 253.384 327.603 252.795 327.603H248.828C249.049 327.388 249.254 327.157 249.444 326.918H252.795C252.991 326.918 253.151 326.765 253.151 326.576C253.151 326.388 252.991 326.232 252.795 326.232H249.918C250.051 326.014 250.172 325.783 250.28 325.549Z" fill="#F6E4C8"/>
<path fill-rule="evenodd" clip-rule="evenodd" d="M256.348 320.073C256.348 324.325 256.185 327.636 253.899 330.017C251.622 332.388 247.317 333.76 239.323 334.445L239.26 333.763C247.256 333.08 251.302 331.714 253.377 329.553C255.444 327.397 255.637 324.379 255.637 320.073H256.348ZM274.825 333.077C270.778 333.077 268.074 335.682 268.074 338.895H267.363C267.363 335.305 270.386 332.394 274.825 332.394V333.077Z" fill="#69450E"/>
<path d="M233.171 159.808H272.613L277.588 312.431H252.004L233.171 159.808Z" fill="#D8A353"/>
<path d="M239.923 159.808H202.613L190.531 312.431H218.247L238.412 197.964L239.923 159.808Z" fill="#D8A353"/>
<path d="M237.87 191.406L252.439 315.968M216.194 316.309L239.291 184.904M217.616 306.386H189.9M275.891 306.386H248.885" stroke="#8E5A0C" stroke-width="3.429"/>
<path d="M232.461 175.891H218.248" stroke="#8E5A0C" stroke-width="3.429" stroke-linecap="round"/>
<path d="M272.259 155.36C272.259 154.604 271.622 153.991 270.837 153.991H196.217C195.432 153.991 194.796 154.604 194.796 155.36V164.257C194.796 165.013 195.432 165.626 196.217 165.626H270.837C271.622 165.626 272.259 165.013 272.259 164.257V155.36Z" fill="#78896A"/>
<path d="M220.379 32.8525H235.303V37.9856C234.293 37.4991 229.748 38.0575 227.999 38.268C227.692 38.3048 227.445 38.5264 227.384 38.8186L226.775 41.75H225.71C225.317 41.75 225.015 41.4389 224.933 41.0691C224.531 39.2432 222.375 40.1843 221.09 38.3279C219.669 36.2747 220.379 32.8525 220.379 32.8525Z" fill="#4A3516"/>
<path d="M224.687 41.7492C224.333 45.8556 226.232 45.8556 228.574 45.8556C230.916 45.8556 232.461 44.0171 232.461 41.7492C232.461 39.4811 230.916 37.6426 228.574 37.6426C226.232 37.6426 224.687 39.4811 224.687 41.7492Z" fill="#AD59D4"/>
<path fill-rule="evenodd" clip-rule="evenodd" d="M229.609 40.1135C229.456 39.9952 229.233 40.0186 229.11 40.1659L227.221 42.4296C227.099 42.5769 227.123 42.7925 227.276 42.9108C227.429 43.029 227.653 43.0057 227.775 42.8584L229.664 40.5947C229.787 40.4474 229.762 40.2321 229.609 40.1135Z" fill="#D5AB6B"/>
<path d="M249.517 28.3952C249.517 21.1614 243.934 15.0546 236.483 14.1386L232.906 13.6987C232.847 13.6916 232.786 13.6916 232.727 13.6987L229.15 14.1386C221.699 15.0546 216.116 21.1614 216.116 28.3952V32.1668C216.116 32.5447 216.434 32.851 216.826 32.851H248.807C249.199 32.851 249.517 32.5447 249.517 32.1668V28.3952Z" fill="#BD7200"/>
<path fill-rule="evenodd" clip-rule="evenodd" d="M219.669 32.8519C219.277 32.8519 218.959 32.5456 218.959 32.1677V28.0724C218.959 20.9784 224.333 14.9456 231.613 13.867L232.709 13.7047C232.74 13.6999 232.772 13.6975 232.803 13.6969C232.844 13.696 232.885 13.6987 232.925 13.7047L234.02 13.867C241.3 14.9456 246.675 20.9784 246.675 28.0724V32.1677C246.675 32.5456 246.356 32.8519 245.964 32.8519H219.669ZM219.669 32.1677V28.0724C219.669 22.165 223.582 17.0305 229.2 15.1468C225.989 17.1254 223.933 20.5814 223.933 24.4143V32.1677H219.669ZM241.7 24.4143C241.7 20.5814 239.644 17.1254 236.433 15.1468C242.051 17.0305 245.964 22.165 245.964 28.0724V32.1677H241.7V24.4143ZM240.989 24.4143V32.1677H236.725V19.8499C236.725 18.0117 235.969 16.2801 234.671 15.0051C238.46 16.6439 240.989 20.2975 240.989 24.4143ZM230.963 15.0051C227.173 16.6439 224.644 20.2975 224.644 24.4143V32.1677H228.908V19.8499C228.908 18.0117 229.665 16.2801 230.963 15.0051ZM229.619 32.1677V19.8499C229.619 17.6332 230.84 15.5884 232.817 14.4719C234.793 15.5884 236.015 17.6332 236.015 19.8499V32.1677H229.619Z" fill="#78896A"/>
<path d="M216.115 29.4287H249.517C249.909 29.4287 250.228 29.7352 250.228 30.1132V34.9037C250.228 35.2818 249.909 35.5882 249.517 35.5882H216.115C215.723 35.5882 215.405 35.2818 215.405 34.9037V30.1132C215.405 29.7352 215.723 29.4287 216.115 29.4287Z" fill="#9F6000"/>
<path d="M219.669 31.4824H222.511C222.904 31.4824 223.222 31.7889 223.222 32.1669V33.5356C223.222 33.9136 222.904 34.2201 222.511 34.2201H219.669C219.276 34.2201 218.958 33.9136 218.958 33.5356V32.1669C218.958 31.7889 219.276 31.4824 219.669 31.4824Z" fill="#FBD191"/>
<path d="M230.073 17.768C230.06 17.7027 230.053 17.6353 230.053 17.5665C230.053 16.9997 230.53 16.54 231.119 16.54C231.707 16.54 232.185 16.9997 232.185 17.5665C232.185 17.6353 232.177 17.7027 232.164 17.768L231.119 17.5665L230.073 17.768Z" fill="#BD7200"/>
<path d="M244.542 61.5962V67.0715M238.857 61.5962V67.0715M227.486 61.5962V67.0715M231.751 61.5962V67.0715" stroke="#4E391A" stroke-width="2.286"/>
<path d="M275.812 104.029L269.771 115.321" stroke="black" stroke-width="2.286"/>
<path d="M246.318 175.549C262.308 188.21 272.613 180.682 272.613 180.682L272.968 165.625H202.257C206.876 171.785 237.435 168.515 246.318 175.549Z" fill="#CB8D2F"/>
<path d="M211.851 41.749V68.4409H281.497V68.4364C288.986 68.2549 295 62.3511 295 55.0948C295 47.8385 288.986 41.9347 281.497 41.7532V41.749H211.851Z" fill="#DB952B"/>
<path d="M294.212 59.5439H214.695V68.4414H281.498V68.4369C287.377 68.2944 292.347 64.6255 294.212 59.5439Z" fill="#C08123"/>
<path d="M227.486 41.7492H216.615C219.468 39.2008 223.288 37.6426 227.486 37.6426C236.317 37.6426 243.476 44.5372 243.476 53.0418V68.4408H239.212V53.0418C239.212 46.8051 233.962 41.7492 227.486 41.7492ZM263.02 41.7492H252.148C255.001 39.2008 258.822 37.6426 263.02 37.6426C271.851 37.6426 279.01 44.5372 279.01 53.0418V68.4408H274.746V53.0418C274.746 46.8051 269.496 41.7492 263.02 41.7492Z" fill="#7A551C"/>
<path d="M212.917 68.4406C220.57 68.4406 226.774 62.4655 226.774 55.0948C226.774 47.7241 220.57 41.749 212.917 41.749C205.263 41.749 199.059 47.7241 199.059 55.0948C199.059 62.4655 205.263 68.4406 212.917 68.4406Z" fill="#D08719"/>
<path d="M212.919 64.3338C218.217 64.3338 222.513 60.1972 222.513 55.0944C222.513 49.9916 218.217 45.855 212.919 45.855C207.62 45.855 203.325 49.9916 203.325 55.0944C203.325 60.1972 207.62 64.3338 212.919 64.3338Z" stroke="#DC9831" stroke-width="4.571"/>
<path d="M212.917 58.8583C215.076 58.8583 216.826 57.173 216.826 55.0942C216.826 53.0153 215.076 51.3301 212.917 51.3301C210.759 51.3301 209.009 53.0153 209.009 55.0942C209.009 57.173 210.759 58.8583 212.917 58.8583Z" stroke="#DC9831" stroke-width="4.571"/>
<path d="M206.166 71.1776C206.166 69.6658 207.438 68.4399 209.008 68.4399H281.497V165.626C281.497 168.65 278.951 171.101 275.811 171.101H209.008C207.438 171.101 206.166 169.875 206.166 168.363V71.1776Z" fill="#594527"/>
<path d="M287.183 160.15C287.183 162.796 284.956 164.941 282.208 164.941H231.04C228.685 164.941 226.776 163.103 226.776 160.835V123.877C226.776 120.097 229.958 117.033 233.883 117.033H280.076C284.001 117.033 287.183 120.097 287.183 123.877V160.15Z" fill="#3C280A"/>
<path d="M287.183 132.774C287.183 135.42 284.956 137.565 282.208 137.565H240.99C238.634 137.565 236.725 135.727 236.725 133.458V123.699C236.725 121.453 235.581 119.35 233.664 118.071L232.106 117.033H280.076C284.001 117.033 287.183 120.097 287.183 123.877V132.774Z" fill="#281C09"/>
<path d="M236.725 158.953C236.725 162.26 233.941 164.941 230.507 164.941C228.446 164.941 226.776 163.332 226.776 161.348V121.824C226.776 119.178 229.003 117.033 231.75 117.033C234.498 117.033 236.725 119.178 236.725 121.824V158.953Z" fill="#332208"/>
<path d="M287.893 75.2839C287.893 71.5043 284.711 68.4399 280.786 68.4399H226.775V100.607H285.05C286.62 100.607 287.893 99.3812 287.893 97.8694V75.2839Z" fill="#3B270A"/>
<path d="M233.882 75.2839C233.882 71.5043 230.7 68.4399 226.775 68.4399V100.607H231.039C232.609 100.607 233.882 99.3812 233.882 97.8694V75.2839Z" fill="#3B270A"/>
<path d="M236.725 75.2839C236.725 71.5043 233.543 68.4399 229.618 68.4399H226.776V100.607H233.882C235.452 100.607 236.725 99.3812 236.725 97.8694V75.2839Z" fill="#332208"/>
<path d="M226.775 68.4399H209.008C207.438 68.4399 206.165 69.6658 206.165 71.1776V168.363C206.165 169.875 207.438 171.101 209.008 171.101H221.089C224.229 171.101 226.775 168.65 226.775 165.626V68.4399Z" fill="#4A3516"/>
<path d="M223.36 170.648C225.37 169.804 226.775 167.873 226.775 165.627V154.579L218.699 146.801L213.673 151.641L209.008 154.334V156.729L223.36 170.648Z" fill="#422A07"/>
<path d="M214.694 68.4399H216.826V87.9455C216.826 88.5126 216.349 88.9723 215.76 88.9723C215.171 88.9723 214.694 88.5126 214.694 87.9455V68.4399Z" fill="#3B270A"/>
<path d="M218.247 129.353H213.983V132.09H218.247V129.353Z" fill="#B16E0A"/>
<path d="M209.008 134.828C209.008 132.56 210.917 130.721 213.272 130.721H218.957C221.312 130.721 223.221 132.56 223.221 134.828V150.569H209.008V134.828Z" fill="#D38816"/>
<path d="M209.008 150.569H221.09V134.828C221.09 132.56 218.926 130.721 216.257 130.721H213.841C210.785 130.721 209.008 132.56 209.008 134.828V150.569Z" fill="#DB952B"/>
<path d="M218.247 125.93H213.983C213.591 125.93 213.272 126.237 213.272 126.615V129.352C213.272 129.73 213.591 130.037 213.983 130.037H218.247C218.64 130.037 218.958 129.73 218.958 129.352V126.615C218.958 126.237 218.64 125.93 218.247 125.93Z" fill="#D08719"/>
<path d="M208.298 138.25H223.933V155.36C223.933 157.25 222.342 158.782 220.38 158.782H216.116H211.852C209.889 158.782 208.298 157.25 208.298 155.36V138.25Z" fill="#3B270A"/>
<path d="M199.186 139.695L202.375 141.843V152.756L194.187 146.409C194.094 146.225 194.045 146.021 194.045 145.812V141.064C194.045 140.308 194.681 139.695 195.466 139.695H199.186Z" fill="#342208"/>
<path d="M207.588 142.433C207.588 141.677 206.952 141.064 206.167 141.064H196.889C196.104 141.064 195.468 141.677 195.468 142.433V147.181C195.468 147.509 195.59 147.826 195.812 148.074L200.965 153.839C201.234 154.141 201.628 154.315 202.042 154.315H206.167C206.952 154.315 207.588 153.702 207.588 152.946V142.433Z" fill="#3B270A"/>
<path d="M214.161 126.958C214.161 126.863 214.082 126.787 213.984 126.787C213.886 126.787 213.806 126.863 213.806 126.958V129.011C213.806 129.105 213.886 129.182 213.984 129.182C214.082 129.182 214.161 129.105 214.161 129.011V126.958ZM215.583 126.958C215.583 126.863 215.503 126.787 215.405 126.787C215.307 126.787 215.227 126.863 215.227 126.958V129.011C215.227 129.105 215.307 129.182 215.405 129.182C215.503 129.182 215.583 129.105 215.583 129.011V126.958ZM216.826 126.787C216.924 126.787 217.004 126.863 217.004 126.958V129.011C217.004 129.105 216.924 129.182 216.826 129.182C216.728 129.182 216.649 129.105 216.649 129.011V126.958C216.649 126.863 216.728 126.787 216.826 126.787ZM218.425 126.958C218.425 126.863 218.346 126.787 218.248 126.787C218.15 126.787 218.07 126.863 218.07 126.958V129.011C218.07 129.105 218.15 129.182 218.248 129.182C218.346 129.182 218.425 129.105 218.425 129.011V126.958Z" fill="#B16E0A"/>
<path d="M242.411 89.6562H245.964C246.357 89.6562 246.675 89.9627 246.675 90.3407V115.664C246.675 116.042 246.357 116.348 245.964 116.348H242.411C242.018 116.348 241.7 116.042 241.7 115.664V90.3407C241.7 89.9627 242.018 89.6562 242.411 89.6562Z" fill="#7A551C"/>
<path d="M271.548 89.6562H275.101C275.493 89.6562 275.812 89.9627 275.812 90.3407V115.664C275.812 116.042 275.493 116.348 275.101 116.348H271.548C271.155 116.348 270.837 116.042 270.837 115.664V90.3407C270.837 89.9627 271.155 89.6562 271.548 89.6562Z" fill="#7A551C"/>
<path d="M268.704 105.399H277.943C278.336 105.399 278.654 105.705 278.654 106.083V108.137C278.654 108.515 278.336 108.821 277.943 108.821H268.704C268.312 108.821 267.994 108.515 267.994 108.137V106.083C267.994 105.705 268.312 105.399 268.704 105.399Z" fill="#4A3516"/>
<path d="M239.568 105.399H248.806C249.199 105.399 249.517 105.705 249.517 106.083V108.137C249.517 108.515 249.199 108.821 248.806 108.821H239.568C239.175 108.821 238.857 108.515 238.857 108.137V106.083C238.857 105.705 239.175 105.399 239.568 105.399Z" fill="#4A3516"/>
<path d="M243.833 158.44C242.459 158.44 241.346 157.368 241.346 156.045C241.346 154.722 242.459 153.649 243.833 153.649C245.207 153.649 246.32 154.722 246.32 156.045C246.32 157.368 245.207 158.44 243.833 158.44Z" stroke="#594527" stroke-width="2.286"/>
<path d="M279.365 158.44C277.991 158.44 276.878 157.368 276.878 156.045C276.878 154.722 277.991 153.649 279.365 153.649C280.739 153.649 281.853 154.722 281.853 156.045C281.853 157.368 280.739 158.44 279.365 158.44Z" stroke="#594527" stroke-width="2.286"/>
<path fill-rule="evenodd" clip-rule="evenodd" d="M257.407 75.7684C257.685 75.501 258.134 75.501 258.412 75.7684L263.94 81.0919C264.217 81.359 264.217 81.7923 263.94 82.0597L258.412 87.3832C258.134 87.6503 257.685 87.6503 257.407 87.3832L251.879 82.0597C251.602 81.7923 251.602 81.359 251.879 81.0919L257.407 75.7684ZM258.756 78.3055C258.938 78.3055 259.12 78.3722 259.259 78.5058L261.807 80.9599C262.085 81.2273 262.085 81.6605 261.807 81.9279L259.259 84.382C259.12 84.5156 258.938 84.5823 258.756 84.5823V78.3055ZM257.041 78.3055C256.859 78.3055 256.677 78.3722 256.538 78.5058L253.99 80.9599C253.712 81.2273 253.712 81.6605 253.99 81.9279L256.538 84.382C256.677 84.5156 256.859 84.5823 257.041 84.5823V78.3055Z" fill="#4A3516"/>
<path d="M151.058 85.7341C150.574 84.76 149.718 83.7213 148.25 82.6332C147.914 82.3844 147.853 81.9131 148.132 81.6062L148.602 81.0894" stroke="#CE9E56" stroke-width="2.286" stroke-linecap="round"/>
<path d="M49.108 0H72.5602C73.3451 0 73.9814 0.612779 73.9814 1.36868V340.835C73.9814 341.59 73.3451 342.203 72.5602 342.203H49.108C48.3231 342.203 47.6868 341.59 47.6868 340.835V1.36868C47.6868 0.612779 48.3231 0 49.108 0Z" fill="#714E18"/>
<path d="M57.6349 0H75.402C76.1869 0 76.8232 0.612779 76.8232 1.36868V340.835C76.8232 341.59 76.1869 342.203 75.402 342.203H57.6349C56.85 342.203 56.2137 341.59 56.2137 340.835V1.36868C56.2137 0.612779 56.85 0 57.6349 0Z" fill="#7A551C"/>
<path d="M99.0437 18.8582C98.7791 18.6156 98.4281 18.48 98.0627 18.48H30.6311C29.8444 18.48 29.2102 19.0929 29.2102 19.849V54.069C29.2102 54.8251 29.8444 55.438 30.6311 55.438H98.0627C98.4281 55.438 98.7791 55.3026 99.0437 55.0598L117.675 37.9496C118.262 37.4104 118.262 36.5076 117.675 35.9683L99.0437 18.8582Z" fill="#50360E"/>
<path d="M101.887 18.8582C101.622 18.6156 101.271 18.48 100.906 18.48H33.4728C32.6893 18.48 32.052 19.0929 32.052 19.849V54.069C32.052 54.8251 32.6893 55.438 33.4728 55.438H100.906C101.271 55.438 101.622 55.3026 101.887 55.0598L120.518 37.9496C121.106 37.4104 121.106 36.5076 120.518 35.9683L101.887 18.8582Z" fill="#644311"/>
<path d="M19.0704 89.3508C19.3347 89.108 19.686 88.9727 20.0529 88.9727H87.4849C88.2684 88.9727 88.9058 89.5853 88.9058 90.3413V124.562C88.9058 125.317 88.2684 125.93 87.4849 125.93H20.0529C19.686 125.93 19.3347 125.795 19.0704 125.552L0.440132 108.442C-0.147499 107.903 -0.147499 107 0.440132 106.461L19.0704 89.3508Z" fill="#50360E"/>
<path d="M23.3362 89.3508C23.6005 89.108 23.9519 88.9727 24.3156 88.9727H91.7476C92.5342 88.9727 93.1694 89.5853 93.1694 90.3413V124.562C93.1694 125.317 92.5342 125.93 91.7476 125.93H24.3156C23.9519 125.93 23.6005 125.795 23.3362 125.552L4.7029 108.442C4.11526 107.903 4.11526 107 4.7029 106.461L23.3362 89.3508Z" fill="#644311"/>
<path d="M200.868 21.2911L202.863 20.7761C202.672 20.1171 202.461 19.5922 202.229 19.2014C201.989 18.8059 201.684 18.4675 201.314 18.1867C200.945 17.9055 200.473 17.5992 199.898 17.2677C199.479 17.0291 199.094 16.8036 198.744 16.5913C198.385 16.3742 198.073 16.1224 197.81 15.8362C197.544 15.543 197.346 15.1622 197.216 14.6939C197.084 14.219 197.059 13.786 197.142 13.3955C197.218 13.0069 197.402 12.6754 197.693 12.4009C197.977 12.1284 198.37 11.9275 198.87 11.7981C199.285 11.6912 199.698 11.6622 200.111 11.7107C200.523 11.7595 200.885 11.9056 201.198 12.1496C201.509 12.3868 201.736 12.7452 201.877 13.2255L203.861 12.7134C203.631 11.9391 203.244 11.3226 202.703 10.8645C202.155 10.4082 201.507 10.1177 200.759 9.99345C200.012 9.86889 199.227 9.91261 198.405 10.1249C197.497 10.3591 196.769 10.7169 196.22 11.1978C195.665 11.6807 195.301 12.2616 195.13 12.9404C194.957 13.6126 194.982 14.3513 195.206 15.1571C195.379 15.7769 195.67 16.3144 196.08 16.7695C196.482 17.2195 196.949 17.6193 197.483 17.9684C198.017 18.3178 198.571 18.64 199.143 18.9349C199.634 19.1847 200.009 19.5125 200.267 19.9183C200.526 20.3237 200.726 20.7815 200.868 21.2911ZM203.86 24.0285C203.774 23.7186 203.601 23.4826 203.341 23.321C203.081 23.1593 202.762 23.1272 202.383 23.2248C201.997 23.3246 201.733 23.5069 201.592 23.7722C201.452 24.0372 201.425 24.3246 201.511 24.6345C201.593 24.9307 201.764 25.1597 202.024 25.3214C202.283 25.4834 202.606 25.5146 202.992 25.4149C203.371 25.3169 203.631 25.1355 203.772 24.8705C203.913 24.6052 203.942 24.3246 203.86 24.0285ZM192.454 27.2024L193.367 25.4181C192.726 25.122 192.177 24.9292 191.72 24.8394C191.252 24.7528 190.787 24.7507 190.324 24.8331C189.861 24.9154 189.311 25.0555 188.673 25.2538C188.211 25.3999 187.781 25.5298 187.384 25.6436C186.978 25.7607 186.576 25.8206 186.179 25.8227C185.775 25.8218 185.347 25.7143 184.896 25.5002C184.437 25.2828 184.083 25.0154 183.833 24.698C183.579 24.3869 183.441 24.0354 183.419 23.6434C183.393 23.2578 183.495 22.841 183.724 22.3933C183.914 22.0223 184.164 21.7037 184.473 21.4373C184.783 21.1711 185.136 21.0046 185.533 20.9387C185.923 20.8695 186.352 20.942 186.82 21.1561L187.728 19.3814C186.971 19.0382 186.235 18.9116 185.521 19.0017C184.803 19.0984 184.149 19.3763 183.559 19.8356C182.97 20.2949 182.487 20.8923 182.11 21.6277C181.695 22.44 181.494 23.2033 181.509 23.9171C181.52 24.6378 181.734 25.2837 182.151 25.8553C182.562 26.4236 183.156 26.8922 183.933 27.2608C184.53 27.5444 185.142 27.6875 185.768 27.6902C186.384 27.6962 187.004 27.621 187.629 27.4644C188.254 27.3078 188.87 27.1195 189.478 26.8991C189.996 26.7081 190.499 26.6524 190.986 26.7326C191.474 26.8129 191.963 26.9695 192.454 27.2024ZM196.564 26.8395C196.265 26.6976 195.967 26.6677 195.669 26.7488C195.372 26.8302 195.137 27.0404 194.963 27.3794C194.786 27.7249 194.755 28.0357 194.87 28.3127C194.984 28.5894 195.19 28.7987 195.489 28.9403C195.775 29.0759 196.066 29.1029 196.364 29.0214C196.661 28.94 196.898 28.7265 197.075 28.3813C197.248 28.0423 197.278 27.7345 197.164 27.4578C197.049 27.1812 196.849 26.9749 196.564 26.8395Z" fill="black"/>
<path d="M46.9757 31.4824H91.7482C92.5331 31.4824 93.1694 32.0952 93.1694 32.8511V38.3267C93.1694 39.0826 92.5331 39.6954 91.7482 39.6954H46.9757C46.1908 39.6954 45.5544 39.0826 45.5544 38.3267V32.8511C45.5544 32.0952 46.1908 31.4824 46.9757 31.4824Z" fill="#74501A"/>
<path d="M33.4752 103.345H78.2477C79.0326 103.345 79.6689 103.958 79.6689 104.714V110.19C79.6689 110.945 79.0326 111.558 78.2477 111.558H33.4752C32.6903 111.558 32.054 110.945 32.054 110.19V104.714C32.054 103.958 32.6903 103.345 33.4752 103.345Z" fill="#74501A"/>
</svg>
